<?xml version="1.0" encoding="utf-8" standalone="no"?>
<!DOCTYPE svg PUBLIC "-//W3C//DTD SVG 1.1//EN"
  "http://www.w3.org/Graphics/SVG/1.1/DTD/svg11.dtd">
<!-- Created with matplotlib (https://matplotlib.org/) -->
<svg height="254.459579pt" version="1.1" viewBox="0 0 413.631211 254.459579" width="413.631211pt" xmlns="http://www.w3.org/2000/svg" xmlns:xlink="http://www.w3.org/1999/xlink">
 <defs>
  <style type="text/css">
*{stroke-linecap:butt;stroke-linejoin:round;}
  </style>
 </defs>
 <g id="figure_1">
  <g id="patch_1">
   <path d="M 0 254.459579 
L 413.631211 254.459579 
L 413.631211 0 
L 0 0 
z
" style="fill:#ffffff;"/>
  </g>
  <g id="axes_1">
   <g id="patch_2">
    <path d="M 44.845313 75.371016 
L 402.931211 75.371016 
L 402.931211 10.7 
L 44.845313 10.7 
z
" style="fill:#ffffff;"/>
   </g>
   <g id="matplotlib.axis_1">
    <g id="xtick_1">
     <g id="line2d_1">
      <defs>
       <path d="M 0 0 
L 0 3.5 
" id="m094adc92e8" style="stroke:#000000;stroke-width:0.8;"/>
      </defs>
      <g>
       <use style="stroke:#000000;stroke-width:0.8;" x="93.675208" xlink:href="#m094adc92e8" y="75.371016"/>
      </g>
     </g>
    </g>
    <g id="xtick_2">
     <g id="line2d_2">
      <g>
       <use style="stroke:#000000;stroke-width:0.8;" x="158.781735" xlink:href="#m094adc92e8" y="75.371016"/>
      </g>
     </g>
    </g>
    <g id="xtick_3">
     <g id="line2d_3">
      <g>
       <use style="stroke:#000000;stroke-width:0.8;" x="223.888262" xlink:href="#m094adc92e8" y="75.371016"/>
      </g>
     </g>
    </g>
    <g id="xtick_4">
     <g id="line2d_4">
      <g>
       <use style="stroke:#000000;stroke-width:0.8;" x="288.994788" xlink:href="#m094adc92e8" y="75.371016"/>
      </g>
     </g>
    </g>
    <g id="xtick_5">
     <g id="line2d_5">
      <g>
       <use style="stroke:#000000;stroke-width:0.8;" x="354.101315" xlink:href="#m094adc92e8" y="75.371016"/>
      </g>
     </g>
    </g>
   </g>
   <g id="matplotlib.axis_2">
    <g id="ytick_1">
     <g id="line2d_6">
      <defs>
       <path d="M 0 0 
L -3.5 0 
" id="me1d789e0b5" style="stroke:#000000;stroke-width:0.8;"/>
      </defs>
      <g>
       <use style="stroke:#000000;stroke-width:0.8;" x="44.845313" xlink:href="#me1d789e0b5" y="72.431424"/>
      </g>
     </g>
     <g id="text_1">
      <!-- −0.05 -->
      <defs>
       <path d="M 10.59375 35.5 
L 73.1875 35.5 
L 73.1875 27.203125 
L 10.59375 27.203125 
z
" id="DejaVuSans-8722"/>
       <path d="M 31.78125 66.40625 
Q 24.171875 66.40625 20.328125 58.90625 
Q 16.5 51.421875 16.5 36.375 
Q 16.5 21.390625 20.328125 13.890625 
Q 24.171875 6.390625 31.78125 6.390625 
Q 39.453125 6.390625 43.28125 13.890625 
Q 47.125 21.390625 47.125 36.375 
Q 47.125 51.421875 43.28125 58.90625 
Q 39.453125 66.40625 31.78125 66.40625 
z
M 31.78125 74.21875 
Q 44.046875 74.21875 50.515625 64.515625 
Q 56.984375 54.828125 56.984375 36.375 
Q 56.984375 17.96875 50.515625 8.265625 
Q 44.046875 -1.421875 31.78125 -1.421875 
Q 19.53125 -1.421875 13.0625 8.265625 
Q 6.59375 17.96875 6.59375 36.375 
Q 6.59375 54.828125 13.0625 64.515625 
Q 19.53125 74.21875 31.78125 74.21875 
z
" id="DejaVuSans-48"/>
       <path d="M 10.6875 12.40625 
L 21 12.40625 
L 21 0 
L 10.6875 0 
z
" id="DejaVuSans-46"/>
       <path d="M 10.796875 72.90625 
L 49.515625 72.90625 
L 49.515625 64.59375 
L 19.828125 64.59375 
L 19.828125 46.734375 
Q 21.96875 47.46875 24.109375 47.828125 
Q 26.265625 48.1875 28.421875 48.1875 
Q 40.625 48.1875 47.75 41.5 
Q 54.890625 34.8125 54.890625 23.390625 
Q 54.890625 11.625 47.5625 5.09375 
Q 40.234375 -1.421875 26.90625 -1.421875 
Q 22.3125 -1.421875 17.546875 -0.640625 
Q 12.796875 0.140625 7.71875 1.703125 
L 7.71875 11.625 
Q 12.109375 9.234375 16.796875 8.0625 
Q 21.484375 6.890625 26.703125 6.890625 
Q 35.15625 6.890625 40.078125 11.328125 
Q 45.015625 15.765625 45.015625 23.390625 
Q 45.015625 31 40.078125 35.4375 
Q 35.15625 39.890625 26.703125 39.890625 
Q 22.75 39.890625 18.8125 39.015625 
Q 14.890625 38.140625 10.796875 36.28125 
z
" id="DejaVuSans-53"/>
      </defs>
      <g transform="translate(7.2 76.230643)scale(0.1 -0.1)">
       <use xlink:href="#DejaVuSans-8722"/>
       <use x="83.789062" xlink:href="#DejaVuSans-48"/>
       <use x="147.412109" xlink:href="#DejaVuSans-46"/>
       <use x="179.199219" xlink:href="#DejaVuSans-48"/>
       <use x="242.822266" xlink:href="#DejaVuSans-53"/>
      </g>
     </g>
    </g>
    <g id="ytick_2">
     <g id="line2d_7">
      <g>
       <use style="stroke:#000000;stroke-width:0.8;" x="44.845313" xlink:href="#me1d789e0b5" y="43.035508"/>
      </g>
     </g>
     <g id="text_2">
      <!-- 0.00 -->
      <g transform="translate(15.579688 46.834727)scale(0.1 -0.1)">
       <use xlink:href="#DejaVuSans-48"/>
       <use x="63.623047" xlink:href="#DejaVuSans-46"/>
       <use x="95.410156" xlink:href="#DejaVuSans-48"/>
       <use x="159.033203" xlink:href="#DejaVuSans-48"/>
      </g>
     </g>
    </g>
    <g id="ytick_3">
     <g id="line2d_8">
      <g>
       <use style="stroke:#000000;stroke-width:0.8;" x="44.845313" xlink:href="#me1d789e0b5" y="13.639592"/>
      </g>
     </g>
     <g id="text_3">
      <!-- 0.05 -->
      <g transform="translate(15.579688 17.43881)scale(0.1 -0.1)">
       <use xlink:href="#DejaVuSans-48"/>
       <use x="63.623047" xlink:href="#DejaVuSans-46"/>
       <use x="95.410156" xlink:href="#DejaVuSans-48"/>
       <use x="159.033203" xlink:href="#DejaVuSans-53"/>
      </g>
     </g>
    </g>
   </g>
   <g id="line2d_9">
    <path clip-path="url(#p2f765586d9)" d="M 61.121944 43.035508 
L 64.410153 43.035508 
L 67.698361 43.035508 
L 70.98657 43.035508 
L 74.274778 43.035508 
L 77.562986 43.035508 
L 80.851195 43.035508 
L 84.139403 43.035508 
L 87.427612 43.035508 
L 90.71582 43.035508 
L 94.004029 43.035508 
L 97.292237 43.035508 
L 100.580445 43.035508 
L 103.868654 43.035508 
L 107.156862 43.035508 
L 110.445071 43.035508 
L 113.733279 43.035508 
L 117.021488 43.035508 
L 120.309696 43.035508 
L 123.597904 43.035508 
L 126.886113 43.035508 
L 130.174321 43.035508 
L 133.46253 43.035508 
L 136.750738 43.035508 
L 140.038947 43.035508 
L 143.327155 43.035508 
L 146.615363 43.035508 
L 149.903572 43.035508 
L 153.19178 43.035508 
L 156.479989 43.035508 
L 159.768197 43.035508 
L 163.056406 43.035508 
L 166.344614 43.035508 
L 169.632822 43.035508 
L 172.921031 43.035508 
L 176.209239 43.035508 
L 179.497448 43.035508 
L 182.785656 43.035508 
L 186.073865 43.035508 
L 189.362073 43.035508 
L 192.650281 43.035508 
L 195.93849 43.035508 
L 199.226698 43.035508 
L 202.514907 43.035508 
L 205.803115 43.035508 
L 209.091324 43.035508 
L 212.379532 43.035508 
L 215.66774 43.035508 
L 218.955949 43.035508 
L 222.244157 43.035508 
L 225.532366 43.035508 
L 228.820574 43.035508 
L 232.108783 43.035508 
L 235.396991 43.035508 
L 238.685199 43.035508 
L 241.973408 43.035508 
L 245.261616 43.035508 
L 248.549825 43.035508 
L 251.838033 43.035508 
L 255.126242 43.035508 
L 258.41445 43.035508 
L 261.702658 43.035508 
L 264.990867 43.035508 
L 268.279075 43.035508 
L 271.567284 43.035508 
L 274.855492 43.035508 
L 278.143701 43.035508 
L 281.431909 43.035508 
L 284.720117 43.035508 
L 288.008326 43.035508 
L 291.296534 43.035508 
L 294.584743 43.035508 
L 297.872951 43.035508 
L 301.16116 43.035508 
L 304.449368 43.035508 
L 307.737576 43.035508 
L 311.025785 43.035508 
L 314.313993 43.035508 
L 317.602202 43.035508 
L 320.89041 43.035508 
L 324.178619 43.035508 
L 327.466827 43.035508 
L 330.755035 43.035508 
L 334.043244 43.035508 
L 337.331452 43.035508 
L 340.619661 43.035508 
L 343.907869 43.035508 
L 347.196078 43.035508 
L 350.484286 43.035508 
L 353.772494 43.035508 
L 357.060703 43.035508 
L 360.348911 43.035508 
L 363.63712 43.035508 
L 366.925328 43.035508 
L 370.213537 43.035508 
L 373.501745 43.035508 
L 376.789953 43.035508 
L 380.078162 43.035508 
L 383.36637 43.035508 
L 386.654579 43.035508 
" style="fill:none;stroke:#1f77b4;stroke-linecap:square;stroke-width:1.5;"/>
   </g>
   <g id="patch_3">
    <path d="M 44.845313 75.371016 
L 44.845313 10.7 
" style="fill:none;stroke:#000000;stroke-linecap:square;stroke-linejoin:miter;stroke-width:0.8;"/>
   </g>
   <g id="patch_4">
    <path d="M 402.931211 75.371016 
L 402.931211 10.7 
" style="fill:none;stroke:#000000;stroke-linecap:square;stroke-linejoin:miter;stroke-width:0.8;"/>
   </g>
   <g id="patch_5">
    <path d="M 44.845313 75.371016 
L 402.931211 75.371016 
" style="fill:none;stroke:#000000;stroke-linecap:square;stroke-linejoin:miter;stroke-width:0.8;"/>
   </g>
   <g id="patch_6">
    <path d="M 44.845313 10.7 
L 402.931211 10.7 
" style="fill:none;stroke:#000000;stroke-linecap:square;stroke-linejoin:miter;stroke-width:0.8;"/>
   </g>
   <g id="text_4">
    <g id="patch_7">
     <path d="M 49.845313 27.378125 
L 55.973438 27.378125 
Q 57.973438 27.378125 57.973438 25.378125 
L 57.973438 15.7 
Q 57.973438 13.7 55.973438 13.7 
L 49.845313 13.7 
Q 47.845313 13.7 47.845313 15.7 
L 47.845313 25.378125 
Q 47.845313 27.378125 49.845313 27.378125 
z
" style="fill:#ffffff;opacity:0.5;"/>
    </g>
    <!-- a -->
    <defs>
     <path d="M 34.28125 27.484375 
Q 23.390625 27.484375 19.1875 25 
Q 14.984375 22.515625 14.984375 16.5 
Q 14.984375 11.71875 18.140625 8.90625 
Q 21.296875 6.109375 26.703125 6.109375 
Q 34.1875 6.109375 38.703125 11.40625 
Q 43.21875 16.703125 43.21875 25.484375 
L 43.21875 27.484375 
z
M 52.203125 31.203125 
L 52.203125 0 
L 43.21875 0 
L 43.21875 8.296875 
Q 40.140625 3.328125 35.546875 0.953125 
Q 30.953125 -1.421875 24.3125 -1.421875 
Q 15.921875 -1.421875 10.953125 3.296875 
Q 6 8.015625 6 15.921875 
Q 6 25.140625 12.171875 29.828125 
Q 18.359375 34.515625 30.609375 34.515625 
L 43.21875 34.515625 
L 43.21875 35.40625 
Q 43.21875 41.609375 39.140625 45 
Q 35.0625 48.390625 27.6875 48.390625 
Q 23 48.390625 18.546875 47.265625 
Q 14.109375 46.140625 10.015625 43.890625 
L 10.015625 52.203125 
Q 14.9375 54.109375 19.578125 55.046875 
Q 24.21875 56 28.609375 56 
Q 40.484375 56 46.34375 49.84375 
Q 52.203125 43.703125 52.203125 31.203125 
z
" id="DejaVuSans-97"/>
    </defs>
    <g transform="translate(49.845313 23.298438)scale(0.1 -0.1)">
     <use xlink:href="#DejaVuSans-97"/>
    </g>
   </g>
  </g>
  <g id="axes_2">
   <g id="patch_8">
    <path d="M 44.845313 152.976235 
L 402.931211 152.976235 
L 402.931211 88.305219 
L 44.845313 88.305219 
z
" style="fill:#ffffff;"/>
   </g>
   <g id="matplotlib.axis_3">
    <g id="xtick_6">
     <g id="line2d_10">
      <g>
       <use style="stroke:#000000;stroke-width:0.8;" x="93.675208" xlink:href="#m094adc92e8" y="152.976235"/>
      </g>
     </g>
    </g>
    <g id="xtick_7">
     <g id="line2d_11">
      <g>
       <use style="stroke:#000000;stroke-width:0.8;" x="158.781735" xlink:href="#m094adc92e8" y="152.976235"/>
      </g>
     </g>
    </g>
    <g id="xtick_8">
     <g id="line2d_12">
      <g>
       <use style="stroke:#000000;stroke-width:0.8;" x="223.888262" xlink:href="#m094adc92e8" y="152.976235"/>
      </g>
     </g>
    </g>
    <g id="xtick_9">
     <g id="line2d_13">
      <g>
       <use style="stroke:#000000;stroke-width:0.8;" x="288.994788" xlink:href="#m094adc92e8" y="152.976235"/>
      </g>
     </g>
    </g>
    <g id="xtick_10">
     <g id="line2d_14">
      <g>
       <use style="stroke:#000000;stroke-width:0.8;" x="354.101315" xlink:href="#m094adc92e8" y="152.976235"/>
      </g>
     </g>
    </g>
   </g>
   <g id="matplotlib.axis_4">
    <g id="ytick_4">
     <g id="line2d_15">
      <g>
       <use style="stroke:#000000;stroke-width:0.8;" x="44.845313" xlink:href="#me1d789e0b5" y="150.037032"/>
      </g>
     </g>
     <g id="text_5">
      <!-- −1 -->
      <defs>
       <path d="M 12.40625 8.296875 
L 28.515625 8.296875 
L 28.515625 63.921875 
L 10.984375 60.40625 
L 10.984375 69.390625 
L 28.421875 72.90625 
L 38.28125 72.90625 
L 38.28125 8.296875 
L 54.390625 8.296875 
L 54.390625 0 
L 12.40625 0 
z
" id="DejaVuSans-49"/>
      </defs>
      <g transform="translate(23.103125 153.83625)scale(0.1 -0.1)">
       <use xlink:href="#DejaVuSans-8722"/>
       <use x="83.789062" xlink:href="#DejaVuSans-49"/>
      </g>
     </g>
    </g>
    <g id="ytick_5">
     <g id="line2d_16">
      <g>
       <use style="stroke:#000000;stroke-width:0.8;" x="44.845313" xlink:href="#me1d789e0b5" y="120.640727"/>
      </g>
     </g>
     <g id="text_6">
      <!-- 0 -->
      <g transform="translate(31.482813 124.439946)scale(0.1 -0.1)">
       <use xlink:href="#DejaVuSans-48"/>
      </g>
     </g>
    </g>
    <g id="ytick_6">
     <g id="line2d_17">
      <g>
       <use style="stroke:#000000;stroke-width:0.8;" x="44.845313" xlink:href="#me1d789e0b5" y="91.244422"/>
      </g>
     </g>
     <g id="text_7">
      <!-- 1 -->
      <g transform="translate(31.482813 95.043641)scale(0.1 -0.1)">
       <use xlink:href="#DejaVuSans-49"/>
      </g>
     </g>
    </g>
   </g>
   <g id="line2d_18">
    <path clip-path="url(#p51b4fa27a1)" d="M 61.121944 92.451897 
L 64.410153 91.754727 
L 67.698361 91.352032 
L 70.98657 91.247917 
L 74.274778 91.443443 
L 77.562986 91.936616 
L 80.851195 92.72241 
L 84.139403 93.792814 
L 87.427612 95.136915 
L 90.71582 96.741011 
L 94.004029 98.58875 
L 97.292237 100.661295 
L 100.580445 102.937517 
L 103.868654 105.394213 
L 107.156862 108.006337 
L 110.445071 110.747261 
L 113.733279 113.589042 
L 117.021488 116.502711 
L 120.309696 119.458564 
L 123.597904 122.426469 
L 126.886113 125.376169 
L 130.174321 128.277594 
L 133.46253 131.101167 
L 136.750738 133.818101 
L 140.038947 136.400701 
L 143.327155 138.822638 
L 146.615363 141.059222 
L 149.903572 143.087652 
L 153.19178 144.887249 
L 156.479989 146.439669 
L 159.768197 147.729085 
L 163.056406 148.742352 
L 166.344614 149.469141 
L 169.632822 149.902043 
L 172.921031 150.036643 
L 176.209239 149.871571 
L 179.497448 149.408509 
L 182.785656 148.652178 
L 186.073865 147.610288 
L 189.362073 146.29346 
L 192.650281 144.715118 
L 195.93849 142.891353 
L 199.226698 140.840758 
L 202.514907 138.584235 
L 205.803115 136.14479 
L 209.091324 133.547291 
L 212.379532 130.818218 
L 215.66774 127.985391 
L 218.955949 125.077691 
L 222.244157 122.124758 
L 225.532366 119.156696 
L 228.820574 116.203764 
L 232.108783 113.296063 
L 235.396991 110.463236 
L 238.685199 107.734163 
L 241.973408 105.136664 
L 245.261616 102.697219 
L 248.549825 100.440696 
L 251.838033 98.390101 
L 255.126242 96.566336 
L 258.41445 94.987995 
L 261.702658 93.671167 
L 264.990867 92.629276 
L 268.279075 91.872945 
L 271.567284 91.409883 
L 274.855492 91.244811 
L 278.143701 91.379412 
L 281.431909 91.812313 
L 284.720117 92.539102 
L 288.008326 93.552369 
L 291.296534 94.841785 
L 294.584743 96.394205 
L 297.872951 98.193803 
L 301.16116 100.222233 
L 304.449368 102.458816 
L 307.737576 104.880753 
L 311.025785 107.463353 
L 314.313993 110.180288 
L 317.602202 113.00386 
L 320.89041 115.905285 
L 324.178619 118.854985 
L 327.466827 121.82289 
L 330.755035 124.778743 
L 334.043244 127.692412 
L 337.331452 130.534194 
L 340.619661 133.275117 
L 343.907869 135.887241 
L 347.196078 138.343937 
L 350.484286 140.620159 
L 353.772494 142.692704 
L 357.060703 144.540443 
L 360.348911 146.144539 
L 363.63712 147.48864 
L 366.925328 148.559044 
L 370.213537 149.344838 
L 373.501745 149.838011 
L 376.789953 150.033537 
L 380.078162 149.929422 
L 383.36637 149.526727 
L 386.654579 148.829557 
" style="fill:none;stroke:#1f77b4;stroke-linecap:square;stroke-width:1.5;"/>
   </g>
   <g id="patch_9">
    <path d="M 44.845313 152.976235 
L 44.845313 88.305219 
" style="fill:none;stroke:#000000;stroke-linecap:square;stroke-linejoin:miter;stroke-width:0.8;"/>
   </g>
   <g id="patch_10">
    <path d="M 402.931211 152.976235 
L 402.931211 88.305219 
" style="fill:none;stroke:#000000;stroke-linecap:square;stroke-linejoin:miter;stroke-width:0.8;"/>
   </g>
   <g id="patch_11">
    <path d="M 44.845313 152.976235 
L 402.931211 152.976235 
" style="fill:none;stroke:#000000;stroke-linecap:square;stroke-linejoin:miter;stroke-width:0.8;"/>
   </g>
   <g id="patch_12">
    <path d="M 44.845313 88.305219 
L 402.931211 88.305219 
" style="fill:none;stroke:#000000;stroke-linecap:square;stroke-linejoin:miter;stroke-width:0.8;"/>
   </g>
   <g id="text_8">
    <g id="patch_13">
     <path d="M 49.845313 104.983344 
L 56.19375 104.983344 
Q 58.19375 104.983344 58.19375 102.983344 
L 58.19375 93.305219 
Q 58.19375 91.305219 56.19375 91.305219 
L 49.845313 91.305219 
Q 47.845313 91.305219 47.845313 93.305219 
L 47.845313 102.983344 
Q 47.845313 104.983344 49.845313 104.983344 
z
" style="fill:#ffffff;opacity:0.5;"/>
    </g>
    <!-- b -->
    <defs>
     <path d="M 48.6875 27.296875 
Q 48.6875 37.203125 44.609375 42.84375 
Q 40.53125 48.484375 33.40625 48.484375 
Q 26.265625 48.484375 22.1875 42.84375 
Q 18.109375 37.203125 18.109375 27.296875 
Q 18.109375 17.390625 22.1875 11.75 
Q 26.265625 6.109375 33.40625 6.109375 
Q 40.53125 6.109375 44.609375 11.75 
Q 48.6875 17.390625 48.6875 27.296875 
z
M 18.109375 46.390625 
Q 20.953125 51.265625 25.265625 53.625 
Q 29.59375 56 35.59375 56 
Q 45.5625 56 51.78125 48.09375 
Q 58.015625 40.1875 58.015625 27.296875 
Q 58.015625 14.40625 51.78125 6.484375 
Q 45.5625 -1.421875 35.59375 -1.421875 
Q 29.59375 -1.421875 25.265625 0.953125 
Q 20.953125 3.328125 18.109375 8.203125 
L 18.109375 0 
L 9.078125 0 
L 9.078125 75.984375 
L 18.109375 75.984375 
z
" id="DejaVuSans-98"/>
    </defs>
    <g transform="translate(49.845313 100.903657)scale(0.1 -0.1)">
     <use xlink:href="#DejaVuSans-98"/>
    </g>
   </g>
  </g>
  <g id="axes_3">
   <g id="patch_14">
    <path d="M 44.845313 230.581454 
L 402.931211 230.581454 
L 402.931211 165.910438 
L 44.845313 165.910438 
z
" style="fill:#ffffff;"/>
   </g>
   <g id="matplotlib.axis_5">
    <g id="xtick_11">
     <g id="line2d_19">
      <g>
       <use style="stroke:#000000;stroke-width:0.8;" x="93.675208" xlink:href="#m094adc92e8" y="230.581454"/>
      </g>
     </g>
     <g id="text_9">
      <!-- −4 -->
      <defs>
       <path d="M 37.796875 64.3125 
L 12.890625 25.390625 
L 37.796875 25.390625 
z
M 35.203125 72.90625 
L 47.609375 72.90625 
L 47.609375 25.390625 
L 58.015625 25.390625 
L 58.015625 17.1875 
L 47.609375 17.1875 
L 47.609375 0 
L 37.796875 0 
L 37.796875 17.1875 
L 4.890625 17.1875 
L 4.890625 26.703125 
z
" id="DejaVuSans-52"/>
      </defs>
      <g transform="translate(86.304114 245.179892)scale(0.1 -0.1)">
       <use xlink:href="#DejaVuSans-8722"/>
       <use x="83.789062" xlink:href="#DejaVuSans-52"/>
      </g>
     </g>
    </g>
    <g id="xtick_12">
     <g id="line2d_20">
      <g>
       <use style="stroke:#000000;stroke-width:0.8;" x="158.781735" xlink:href="#m094adc92e8" y="230.581454"/>
      </g>
     </g>
     <g id="text_10">
      <!-- −2 -->
      <defs>
       <path d="M 19.1875 8.296875 
L 53.609375 8.296875 
L 53.609375 0 
L 7.328125 0 
L 7.328125 8.296875 
Q 12.9375 14.109375 22.625 23.890625 
Q 32.328125 33.6875 34.8125 36.53125 
Q 39.546875 41.84375 41.421875 45.53125 
Q 43.3125 49.21875 43.3125 52.78125 
Q 43.3125 58.59375 39.234375 62.25 
Q 35.15625 65.921875 28.609375 65.921875 
Q 23.96875 65.921875 18.8125 64.3125 
Q 13.671875 62.703125 7.8125 59.421875 
L 7.8125 69.390625 
Q 13.765625 71.78125 18.9375 73 
Q 24.125 74.21875 28.421875 74.21875 
Q 39.75 74.21875 46.484375 68.546875 
Q 53.21875 62.890625 53.21875 53.421875 
Q 53.21875 48.921875 51.53125 44.890625 
Q 49.859375 40.875 45.40625 35.40625 
Q 44.1875 33.984375 37.640625 27.21875 
Q 31.109375 20.453125 19.1875 8.296875 
z
" id="DejaVuSans-50"/>
      </defs>
      <g transform="translate(151.410641 245.179892)scale(0.1 -0.1)">
       <use xlink:href="#DejaVuSans-8722"/>
       <use x="83.789062" xlink:href="#DejaVuSans-50"/>
      </g>
     </g>
    </g>
    <g id="xtick_13">
     <g id="line2d_21">
      <g>
       <use style="stroke:#000000;stroke-width:0.8;" x="223.888262" xlink:href="#m094adc92e8" y="230.581454"/>
      </g>
     </g>
     <g id="text_11">
      <!-- 0 -->
      <g transform="translate(220.707012 245.179892)scale(0.1 -0.1)">
       <use xlink:href="#DejaVuSans-48"/>
      </g>
     </g>
    </g>
    <g id="xtick_14">
     <g id="line2d_22">
      <g>
       <use style="stroke:#000000;stroke-width:0.8;" x="288.994788" xlink:href="#m094adc92e8" y="230.581454"/>
      </g>
     </g>
     <g id="text_12">
      <!-- 2 -->
      <g transform="translate(285.813538 245.179892)scale(0.1 -0.1)">
       <use xlink:href="#DejaVuSans-50"/>
      </g>
     </g>
    </g>
    <g id="xtick_15">
     <g id="line2d_23">
      <g>
       <use style="stroke:#000000;stroke-width:0.8;" x="354.101315" xlink:href="#m094adc92e8" y="230.581454"/>
      </g>
     </g>
     <g id="text_13">
      <!-- 4 -->
      <g transform="translate(350.920065 245.179892)scale(0.1 -0.1)">
       <use xlink:href="#DejaVuSans-52"/>
      </g>
     </g>
    </g>
   </g>
   <g id="matplotlib.axis_6">
    <g id="ytick_7">
     <g id="line2d_24">
      <g>
       <use style="stroke:#000000;stroke-width:0.8;" x="44.845313" xlink:href="#me1d789e0b5" y="227.659965"/>
      </g>
     </g>
     <g id="text_14">
      <!-- −1 -->
      <g transform="translate(23.103125 231.459184)scale(0.1 -0.1)">
       <use xlink:href="#DejaVuSans-8722"/>
       <use x="83.789062" xlink:href="#DejaVuSans-49"/>
      </g>
     </g>
    </g>
    <g id="ytick_8">
     <g id="line2d_25">
      <g>
       <use style="stroke:#000000;stroke-width:0.8;" x="44.845313" xlink:href="#me1d789e0b5" y="198.245946"/>
      </g>
     </g>
     <g id="text_15">
      <!-- 0 -->
      <g transform="translate(31.482813 202.045165)scale(0.1 -0.1)">
       <use xlink:href="#DejaVuSans-48"/>
      </g>
     </g>
    </g>
    <g id="ytick_9">
     <g id="line2d_26">
      <g>
       <use style="stroke:#000000;stroke-width:0.8;" x="44.845313" xlink:href="#me1d789e0b5" y="168.831927"/>
      </g>
     </g>
     <g id="text_16">
      <!-- 1 -->
      <g transform="translate(31.482813 172.631146)scale(0.1 -0.1)">
       <use xlink:href="#DejaVuSans-49"/>
      </g>
     </g>
    </g>
   </g>
   <g id="line2d_27">
    <path clip-path="url(#p2edfbe50c0)" d="M 61.121944 182.244099 
L 64.410153 187.521632 
L 67.698361 193.235361 
L 70.98657 199.152889 
L 74.274778 205.033527 
L 77.562986 210.638091 
L 80.851195 215.738623 
L 84.139403 220.127665 
L 87.427612 223.6267 
L 90.71582 226.093409 
L 94.004029 227.427464 
L 97.292237 227.574603 
L 100.580445 226.528841 
L 103.868654 224.332713 
L 107.156862 221.075544 
L 110.445071 216.889815 
L 113.733279 211.945773 
L 117.021488 206.44451 
L 120.309696 200.609783 
L 123.597904 194.67891 
L 126.886113 188.893122 
L 130.174321 183.487745 
L 133.46253 178.682638 
L 136.750738 174.673239 
L 140.038947 171.622626 
L 143.327155 169.654878 
L 146.615363 168.85003 
L 149.903572 169.240818 
L 153.19178 170.811348 
L 156.479989 173.49774 
L 159.768197 177.19073 
L 163.056406 181.74011 
L 166.344614 186.96084 
L 169.632822 192.640577 
L 172.921031 198.548303 
L 176.209239 204.443731 
L 179.497448 210.087074 
L 182.785656 215.248796 
L 186.073865 219.718952 
L 189.362073 223.315724 
L 192.650281 225.89282 
L 195.93849 227.345419 
L 199.226698 227.614439 
L 202.514907 226.688939 
L 205.803115 224.606561 
L 209.091324 221.452003 
L 212.379532 217.353573 
L 215.66774 212.477968 
L 218.955949 207.023496 
L 222.244157 201.212009 
L 225.532366 195.279883 
L 228.820574 189.468397 
L 232.108783 184.013925 
L 235.396991 179.13832 
L 238.685199 175.039889 
L 241.973408 171.885332 
L 245.261616 169.802954 
L 248.549825 168.877453 
L 251.838033 169.146474 
L 255.126242 170.599073 
L 258.41445 173.176168 
L 261.702658 176.772941 
L 264.990867 181.243097 
L 268.279075 186.404818 
L 271.567284 192.048161 
L 274.855492 197.943589 
L 278.143701 203.851316 
L 281.431909 209.531052 
L 284.720117 214.751783 
L 288.008326 219.301163 
L 291.296534 222.994152 
L 294.584743 225.680545 
L 297.872951 227.251074 
L 301.16116 227.641863 
L 304.449368 226.837015 
L 307.737576 224.869267 
L 311.025785 221.818653 
L 314.313993 217.809255 
L 317.602202 213.004147 
L 320.89041 207.598771 
L 324.178619 201.812982 
L 327.466827 195.882109 
L 330.755035 190.047382 
L 334.043244 184.54612 
L 337.331452 179.602078 
L 340.619661 175.416348 
L 343.907869 172.159179 
L 347.196078 169.963052 
L 350.484286 168.91729 
L 353.772494 169.064429 
L 357.060703 170.398483 
L 360.348911 172.865193 
L 363.63712 176.364228 
L 366.925328 180.75327 
L 370.213537 185.853801 
L 373.501745 191.458365 
L 376.789953 197.339004 
L 380.078162 203.256531 
L 383.36637 208.97026 
L 386.654579 214.247794 
" style="fill:none;stroke:#1f77b4;stroke-linecap:square;stroke-width:1.5;"/>
   </g>
   <g id="patch_15">
    <path d="M 44.845313 230.581454 
L 44.845313 165.910438 
" style="fill:none;stroke:#000000;stroke-linecap:square;stroke-linejoin:miter;stroke-width:0.8;"/>
   </g>
   <g id="patch_16">
    <path d="M 402.931211 230.581454 
L 402.931211 165.910438 
" style="fill:none;stroke:#000000;stroke-linecap:square;stroke-linejoin:miter;stroke-width:0.8;"/>
   </g>
   <g id="patch_17">
    <path d="M 44.845313 230.581454 
L 402.931211 230.581454 
" style="fill:none;stroke:#000000;stroke-linecap:square;stroke-linejoin:miter;stroke-width:0.8;"/>
   </g>
   <g id="patch_18">
    <path d="M 44.845313 165.910438 
L 402.931211 165.910438 
" style="fill:none;stroke:#000000;stroke-linecap:square;stroke-linejoin:miter;stroke-width:0.8;"/>
   </g>
   <g id="text_17">
    <g id="patch_19">
     <path d="M 49.845313 182.588563 
L 55.34375 182.588563 
Q 57.34375 182.588563 57.34375 180.588563 
L 57.34375 170.910438 
Q 57.34375 168.910438 55.34375 168.910438 
L 49.845313 168.910438 
Q 47.845313 168.910438 47.845313 170.910438 
L 47.845313 180.588563 
Q 47.845313 182.588563 49.845313 182.588563 
z
" style="fill:#ffffff;opacity:0.5;"/>
    </g>
    <!-- c -->
    <defs>
     <path d="M 48.78125 52.59375 
L 48.78125 44.1875 
Q 44.96875 46.296875 41.140625 47.34375 
Q 37.3125 48.390625 33.40625 48.390625 
Q 24.65625 48.390625 19.8125 42.84375 
Q 14.984375 37.3125 14.984375 27.296875 
Q 14.984375 17.28125 19.8125 11.734375 
Q 24.65625 6.203125 33.40625 6.203125 
Q 37.3125 6.203125 41.140625 7.25 
Q 44.96875 8.296875 48.78125 10.40625 
L 48.78125 2.09375 
Q 45.015625 0.34375 40.984375 -0.53125 
Q 36.96875 -1.421875 32.421875 -1.421875 
Q 20.0625 -1.421875 12.78125 6.34375 
Q 5.515625 14.109375 5.515625 27.296875 
Q 5.515625 40.671875 12.859375 48.328125 
Q 20.21875 56 33.015625 56 
Q 37.15625 56 41.109375 55.140625 
Q 45.0625 54.296875 48.78125 52.59375 
z
" id="DejaVuSans-99"/>
    </defs>
    <g transform="translate(49.845313 178.508876)scale(0.1 -0.1)">
     <use xlink:href="#DejaVuSans-99"/>
    </g>
   </g>
  </g>
 </g>
 <defs>
  <clipPath id="p2f765586d9">
   <rect height="64.671016" width="358.085898" x="44.845313" y="10.7"/>
  </clipPath>
  <clipPath id="p51b4fa27a1">
   <rect height="64.671016" width="358.085898" x="44.845313" y="88.305219"/>
  </clipPath>
  <clipPath id="p2edfbe50c0">
   <rect height="64.671016" width="358.085898" x="44.845313" y="165.910438"/>
  </clipPath>
 </defs>
</svg>
