<?xml version="1.0" encoding="utf-8" standalone="no"?>
<!DOCTYPE svg PUBLIC "-//W3C//DTD SVG 1.1//EN"
  "http://www.w3.org/Graphics/SVG/1.1/DTD/svg11.dtd">
<!-- Created with matplotlib (https://matplotlib.org/) -->
<svg height="198.666767pt" version="1.1" viewBox="0 0 318.924581 198.666767" width="318.924581pt" xmlns="http://www.w3.org/2000/svg" xmlns:xlink="http://www.w3.org/1999/xlink">
 <defs>
  <style type="text/css">
*{stroke-linecap:butt;stroke-linejoin:round;}
  </style>
 </defs>
 <g id="figure_1">
  <g id="patch_1">
   <path d="M 0 198.666767 
L 318.924581 198.666767 
L 318.924581 0 
L 0 0 
z
" style="fill:#ffffff;"/>
  </g>
  <g id="axes_1">
   <g id="patch_2">
    <path d="M 39.660158 59.203262 
L 308.224581 59.203262 
L 308.224581 10.7 
L 39.660158 10.7 
z
" style="fill:#ffffff;"/>
   </g>
   <g id="matplotlib.axis_1">
    <g id="xtick_1">
     <g id="line2d_1">
      <defs>
       <path d="M 0 0 
L 0 3.5 
" id="m2865fceacc" style="stroke:#000000;stroke-width:0.8;"/>
      </defs>
      <g>
       <use style="stroke:#000000;stroke-width:0.8;" x="76.282579" xlink:href="#m2865fceacc" y="59.203262"/>
      </g>
     </g>
    </g>
    <g id="xtick_2">
     <g id="line2d_2">
      <g>
       <use style="stroke:#000000;stroke-width:0.8;" x="125.112475" xlink:href="#m2865fceacc" y="59.203262"/>
      </g>
     </g>
    </g>
    <g id="xtick_3">
     <g id="line2d_3">
      <g>
       <use style="stroke:#000000;stroke-width:0.8;" x="173.94237" xlink:href="#m2865fceacc" y="59.203262"/>
      </g>
     </g>
    </g>
    <g id="xtick_4">
     <g id="line2d_4">
      <g>
       <use style="stroke:#000000;stroke-width:0.8;" x="222.772265" xlink:href="#m2865fceacc" y="59.203262"/>
      </g>
     </g>
    </g>
    <g id="xtick_5">
     <g id="line2d_5">
      <g>
       <use style="stroke:#000000;stroke-width:0.8;" x="271.60216" xlink:href="#m2865fceacc" y="59.203262"/>
      </g>
     </g>
    </g>
   </g>
   <g id="matplotlib.axis_2">
    <g id="ytick_1">
     <g id="line2d_6">
      <defs>
       <path d="M 0 0 
L -3.5 0 
" id="mec058ba039" style="stroke:#000000;stroke-width:0.8;"/>
      </defs>
      <g>
       <use style="stroke:#000000;stroke-width:0.8;" x="39.660158" xlink:href="#mec058ba039" y="56.998568"/>
      </g>
     </g>
     <g id="text_1">
      <!-- $-0.05$ -->
      <defs>
       <path d="M 65.90625 23 
C 67.59375 23 69.40625 23 69.40625 25 
C 69.40625 27 67.59375 27 65.90625 27 
L 11.796875 27 
C 10.09375 27 8.296875 27 8.296875 25 
C 8.296875 23 10.09375 23 11.796875 23 
z
" id="CMSY10-0"/>
       <path d="M 42 31.84375 
C 42 37.96875 41.90625 48.421875 37.703125 56.453125 
C 34 63.484375 28.09375 66 22.90625 66 
C 18.09375 66 12 63.78125 8.203125 56.5625 
C 4.203125 49.015625 3.796875 39.671875 3.796875 31.84375 
C 3.796875 26.109375 3.90625 17.375 7 9.734375 
C 11.296875 -0.609375 19 -2 22.90625 -2 
C 27.5 -2 34.5 -0.109375 38.59375 9.4375 
C 41.59375 16.375 42 24.5 42 31.84375 
z
M 22.90625 -0.40625 
C 16.5 -0.40625 12.703125 5.125 11.296875 12.75 
C 10.203125 18.6875 10.203125 27.328125 10.203125 32.953125 
C 10.203125 40.6875 10.203125 47.109375 11.5 53.234375 
C 13.40625 61.78125 19 64.390625 22.90625 64.390625 
C 27 64.390625 32.296875 61.671875 34.203125 53.4375 
C 35.5 47.71875 35.59375 40.984375 35.59375 32.953125 
C 35.59375 26.421875 35.59375 18.375 34.40625 12.453125 
C 32.296875 1.5 26.40625 -0.40625 22.90625 -0.40625 
z
" id="CMR17-48"/>
       <path d="M 18.40625 4.796875 
C 18.40625 7.6875 16 9.6875 13.59375 9.6875 
C 10.703125 9.6875 8.703125 7.296875 8.703125 4.890625 
C 8.703125 2 11.09375 0 13.5 0 
C 16.40625 0 18.40625 2.390625 18.40625 4.796875 
z
" id="CMMI12-58"/>
       <path d="M 11.40625 58.59375 
C 12.40625 58.1875 16.5 56.890625 20.703125 56.890625 
C 30 56.890625 35.09375 61.890625 38 64.6875 
C 38 65.484375 38 66 37.40625 66 
C 37.296875 66 37.09375 66 36.296875 65.59375 
C 32.796875 64.09375 28.703125 63 23.703125 63 
C 20.703125 63 16.203125 63.359375 11.296875 65.484375 
C 10.203125 66 10 66 9.90625 66 
C 9.40625 66 9.296875 65.890625 9.296875 63.90625 
L 9.296875 34.859375 
C 9.296875 33.015625 9.296875 32.5 10.296875 32.5 
C 10.796875 32.5 11 32.703125 11.5 33.421875 
C 14.703125 38.046875 19.09375 40 24.09375 40 
C 27.59375 40 35.09375 37.734375 35.09375 20.203125 
C 35.09375 16.984375 35.09375 11.1875 32.09375 6.59375 
C 29.59375 2.484375 25.703125 0.390625 21.40625 0.390625 
C 14.796875 0.390625 8.09375 4.984375 6.296875 12.6875 
C 6.703125 12.59375 7.5 12.390625 7.90625 12.390625 
C 9.203125 12.390625 11.703125 13.09375 11.703125 16.1875 
C 11.703125 18.890625 9.796875 20 7.90625 20 
C 5.59375 20 4.09375 18.59375 4.09375 15.796875 
C 4.09375 7.09375 11 -2 21.59375 -2 
C 31.90625 -2 41.703125 6.890625 41.703125 19.796875 
C 41.703125 32.09375 33.90625 41.59375 24.203125 41.59375 
C 19.09375 41.59375 14.796875 39.6875 11.40625 36 
z
" id="CMR17-53"/>
      </defs>
      <g transform="translate(7.2 60.457817)scale(0.1 -0.1)">
       <use transform="scale(0.996264)" xlink:href="#CMSY10-0"/>
       <use transform="translate(77.487468 0)scale(0.996264)" xlink:href="#CMR17-48"/>
       <use transform="translate(123.177945 0)scale(0.996264)" xlink:href="#CMMI12-58"/>
       <use transform="translate(150.275122 0)scale(0.996264)" xlink:href="#CMR17-48"/>
       <use transform="translate(195.965599 0)scale(0.996264)" xlink:href="#CMR17-53"/>
      </g>
     </g>
    </g>
    <g id="ytick_2">
     <g id="line2d_7">
      <g>
       <use style="stroke:#000000;stroke-width:0.8;" x="39.660158" xlink:href="#mec058ba039" y="34.951631"/>
      </g>
     </g>
     <g id="text_2">
      <!-- $0.00$ -->
      <g transform="translate(14.948744 38.41088)scale(0.1 -0.1)">
       <use transform="scale(0.996264)" xlink:href="#CMR17-48"/>
       <use transform="translate(45.690477 0)scale(0.996264)" xlink:href="#CMMI12-58"/>
       <use transform="translate(72.787654 0)scale(0.996264)" xlink:href="#CMR17-48"/>
       <use transform="translate(118.478131 0)scale(0.996264)" xlink:href="#CMR17-48"/>
      </g>
     </g>
    </g>
    <g id="ytick_3">
     <g id="line2d_8">
      <g>
       <use style="stroke:#000000;stroke-width:0.8;" x="39.660158" xlink:href="#mec058ba039" y="12.904694"/>
      </g>
     </g>
     <g id="text_3">
      <!-- $0.05$ -->
      <g transform="translate(14.948744 16.363943)scale(0.1 -0.1)">
       <use transform="scale(0.996264)" xlink:href="#CMR17-48"/>
       <use transform="translate(45.690477 0)scale(0.996264)" xlink:href="#CMMI12-58"/>
       <use transform="translate(72.787654 0)scale(0.996264)" xlink:href="#CMR17-48"/>
       <use transform="translate(118.478131 0)scale(0.996264)" xlink:href="#CMR17-53"/>
      </g>
     </g>
    </g>
   </g>
   <g id="line2d_9">
    <path clip-path="url(#p67ce00545e)" d="M 51.867632 34.951631 
L 54.333788 34.951631 
L 56.799944 34.951631 
L 59.266101 34.951631 
L 61.732257 34.951631 
L 64.198413 34.951631 
L 66.66457 34.951631 
L 69.130726 34.951631 
L 71.596882 34.951631 
L 74.063039 34.951631 
L 76.529195 34.951631 
L 78.995351 34.951631 
L 81.461508 34.951631 
L 83.927664 34.951631 
L 86.39382 34.951631 
L 88.859977 34.951631 
L 91.326133 34.951631 
L 93.792289 34.951631 
L 96.258446 34.951631 
L 98.724602 34.951631 
L 101.190758 34.951631 
L 103.656915 34.951631 
L 106.123071 34.951631 
L 108.589227 34.951631 
L 111.055383 34.951631 
L 113.52154 34.951631 
L 115.987696 34.951631 
L 118.453852 34.951631 
L 120.920009 34.951631 
L 123.386165 34.951631 
L 125.852321 34.951631 
L 128.318478 34.951631 
L 130.784634 34.951631 
L 133.25079 34.951631 
L 135.716947 34.951631 
L 138.183103 34.951631 
L 140.649259 34.951631 
L 143.115416 34.951631 
L 145.581572 34.951631 
L 148.047728 34.951631 
L 150.513885 34.951631 
L 152.980041 34.951631 
L 155.446197 34.951631 
L 157.912354 34.951631 
L 160.37851 34.951631 
L 162.844666 34.951631 
L 165.310823 34.951631 
L 167.776979 34.951631 
L 170.243135 34.951631 
L 172.709292 34.951631 
L 175.175448 34.951631 
L 177.641604 34.951631 
L 180.107761 34.951631 
L 182.573917 34.951631 
L 185.040073 34.951631 
L 187.506229 34.951631 
L 189.972386 34.951631 
L 192.438542 34.951631 
L 194.904698 34.951631 
L 197.370855 34.951631 
L 199.837011 34.951631 
L 202.303167 34.951631 
L 204.769324 34.951631 
L 207.23548 34.951631 
L 209.701636 34.951631 
L 212.167793 34.951631 
L 214.633949 34.951631 
L 217.100105 34.951631 
L 219.566262 34.951631 
L 222.032418 34.951631 
L 224.498574 34.951631 
L 226.964731 34.951631 
L 229.430887 34.951631 
L 231.897043 34.951631 
L 234.3632 34.951631 
L 236.829356 34.951631 
L 239.295512 34.951631 
L 241.761669 34.951631 
L 244.227825 34.951631 
L 246.693981 34.951631 
L 249.160138 34.951631 
L 251.626294 34.951631 
L 254.09245 34.951631 
L 256.558607 34.951631 
L 259.024763 34.951631 
L 261.490919 34.951631 
L 263.957075 34.951631 
L 266.423232 34.951631 
L 268.889388 34.951631 
L 271.355544 34.951631 
L 273.821701 34.951631 
L 276.287857 34.951631 
L 278.754013 34.951631 
L 281.22017 34.951631 
L 283.686326 34.951631 
L 286.152482 34.951631 
L 288.618639 34.951631 
L 291.084795 34.951631 
L 293.550951 34.951631 
L 296.017108 34.951631 
" style="fill:none;stroke:#1f77b4;stroke-linecap:square;stroke-width:1.5;"/>
   </g>
   <g id="patch_3">
    <path d="M 39.660158 59.203262 
L 39.660158 10.7 
" style="fill:none;stroke:#000000;stroke-linecap:square;stroke-linejoin:miter;stroke-width:0.8;"/>
   </g>
   <g id="patch_4">
    <path d="M 308.224581 59.203262 
L 308.224581 10.7 
" style="fill:none;stroke:#000000;stroke-linecap:square;stroke-linejoin:miter;stroke-width:0.8;"/>
   </g>
   <g id="patch_5">
    <path d="M 39.660158 59.203262 
L 308.224581 59.203262 
" style="fill:none;stroke:#000000;stroke-linecap:square;stroke-linejoin:miter;stroke-width:0.8;"/>
   </g>
   <g id="patch_6">
    <path d="M 39.660158 10.7 
L 308.224581 10.7 
" style="fill:none;stroke:#000000;stroke-linecap:square;stroke-linejoin:miter;stroke-width:0.8;"/>
   </g>
   <g id="text_4">
    <!-- (a) -->
    <defs>
     <path d="M 30.59375 -24.40625 
C 30.59375 -24.3125 30.59375 -24.109375 30.296875 -23.8125 
C 25.703125 -19.109375 13.40625 -6.296875 13.40625 24.9375 
C 13.40625 56.171875 25.5 68.875 30.40625 73.890625 
C 30.40625 73.984375 30.59375 74.1875 30.59375 74.484375 
C 30.59375 74.796875 30.296875 75 29.90625 75 
C 28.796875 75 20.296875 67.578125 15.40625 56.5625 
C 10.40625 45.453125 9 34.65625 9 25.046875 
C 9 17.828125 9.703125 5.625 15.703125 -7.296875 
C 20.5 -17.703125 28.703125 -25 29.90625 -25 
C 30.40625 -25 30.59375 -24.8125 30.59375 -24.40625 
z
" id="CMR17-40"/>
     <path d="M 36 25.875 
C 36 32 36 35.546875 31.796875 39.59375 
C 28.09375 42.984375 23.796875 44 20.40625 44 
C 12.5 44 6.796875 37.625 6.796875 30.890625 
C 6.796875 27.1875 9.796875 27 10.40625 27 
C 11.703125 27 14 27.796875 14 30.59375 
C 14 33.09375 12.09375 34.1875 10.40625 34.1875 
C 10 34.1875 9.5 34.09375 9.203125 34 
C 11.296875 40.53125 16.703125 42.390625 20.203125 42.390625 
C 25.203125 42.390625 30.703125 37.828125 30.703125 29.296875 
L 30.703125 25.5 
C 24.796875 25.296875 17.703125 24.5 12.09375 21.453125 
C 5.796875 17.921875 4 12.84375 4 9 
C 4 1.203125 13 -1 18.296875 -1 
C 23.796875 -1 28.90625 2.109375 31.09375 7.890625 
C 31.296875 3.421875 34.09375 -0.609375 38.5 -0.609375 
C 40.59375 -0.609375 45.90625 0.796875 45.90625 8.796875 
L 45.90625 14.46875 
L 44.09375 14.46875 
L 44.09375 8.703125 
C 44.09375 2.515625 41.40625 1.703125 40.09375 1.703125 
C 36 1.703125 36 6.96875 36 11.4375 
z
M 30.703125 13.859375 
C 30.703125 5.046875 24.5 0.59375 19 0.59375 
C 14 0.59375 10.09375 4.34375 10.09375 9 
C 10.09375 12.046875 11.40625 17.40625 17.203125 20.65625 
C 22 23.390625 27.5 23.796875 30.703125 24 
z
" id="CMR17-97"/>
     <path d="M 26.296875 24.9375 
C 26.296875 32.140625 25.59375 44.359375 19.59375 57.265625 
C 14.796875 67.6875 6.59375 75 5.40625 75 
C 5.09375 75 4.703125 74.890625 4.703125 74.390625 
C 4.703125 74.1875 4.796875 74.09375 4.90625 73.890625 
C 9.703125 68.875 21.90625 56.171875 21.90625 25.046875 
C 21.90625 -6.1875 9.796875 -18.90625 4.90625 -23.90625 
C 4.796875 -24.109375 4.703125 -24.203125 4.703125 -24.40625 
C 4.703125 -24.90625 5.09375 -25 5.40625 -25 
C 6.5 -25 15 -17.609375 19.90625 -6.59375 
C 24.90625 4.515625 26.296875 15.328125 26.296875 24.9375 
z
" id="CMR17-41"/>
    </defs>
    <g transform="translate(44.660158 23.17198)scale(0.1 -0.1)">
     <use transform="scale(0.996264)" xlink:href="#CMR17-40"/>
     <use transform="translate(35.280768 0)scale(0.996264)" xlink:href="#CMR17-97"/>
     <use transform="translate(80.971245 0)scale(0.996264)" xlink:href="#CMR17-41"/>
    </g>
   </g>
  </g>
  <g id="axes_2">
   <g id="patch_7">
    <path d="M 39.660158 117.407176 
L 308.224581 117.407176 
L 308.224581 68.903914 
L 39.660158 68.903914 
z
" style="fill:#ffffff;"/>
   </g>
   <g id="matplotlib.axis_3">
    <g id="xtick_6">
     <g id="line2d_10">
      <g>
       <use style="stroke:#000000;stroke-width:0.8;" x="76.282579" xlink:href="#m2865fceacc" y="117.407176"/>
      </g>
     </g>
    </g>
    <g id="xtick_7">
     <g id="line2d_11">
      <g>
       <use style="stroke:#000000;stroke-width:0.8;" x="125.112475" xlink:href="#m2865fceacc" y="117.407176"/>
      </g>
     </g>
    </g>
    <g id="xtick_8">
     <g id="line2d_12">
      <g>
       <use style="stroke:#000000;stroke-width:0.8;" x="173.94237" xlink:href="#m2865fceacc" y="117.407176"/>
      </g>
     </g>
    </g>
    <g id="xtick_9">
     <g id="line2d_13">
      <g>
       <use style="stroke:#000000;stroke-width:0.8;" x="222.772265" xlink:href="#m2865fceacc" y="117.407176"/>
      </g>
     </g>
    </g>
    <g id="xtick_10">
     <g id="line2d_14">
      <g>
       <use style="stroke:#000000;stroke-width:0.8;" x="271.60216" xlink:href="#m2865fceacc" y="117.407176"/>
      </g>
     </g>
    </g>
   </g>
   <g id="matplotlib.axis_4">
    <g id="ytick_4">
     <g id="line2d_15">
      <g>
       <use style="stroke:#000000;stroke-width:0.8;" x="39.660158" xlink:href="#mec058ba039" y="115.202774"/>
      </g>
     </g>
     <g id="text_5">
      <!-- $-1$ -->
      <defs>
       <path d="M 26.59375 63.796875 
C 26.59375 65.890625 26.5 66 25.09375 66 
C 21.203125 61.359375 15.296875 59.890625 9.703125 59.6875 
C 9.40625 59.6875 8.90625 59.6875 8.796875 59.5 
C 8.703125 59.296875 8.703125 59.09375 8.703125 57 
C 11.796875 57 17 57.59375 21 59.984375 
L 21 7.296875 
C 21 3.796875 20.796875 2.59375 12.203125 2.59375 
L 9.203125 2.59375 
L 9.203125 0 
C 14 0.09375 19 0.1875 23.796875 0.1875 
C 28.59375 0.1875 33.59375 0.09375 38.40625 0 
L 38.40625 2.59375 
L 35.40625 2.59375 
C 26.796875 2.59375 26.59375 3.6875 26.59375 7.296875 
z
" id="CMR17-49"/>
      </defs>
      <g transform="translate(19.930079 118.662023)scale(0.1 -0.1)">
       <use transform="scale(0.996264)" xlink:href="#CMSY10-0"/>
       <use transform="translate(77.487468 0)scale(0.996264)" xlink:href="#CMR17-49"/>
      </g>
     </g>
    </g>
    <g id="ytick_5">
     <g id="line2d_16">
      <g>
       <use style="stroke:#000000;stroke-width:0.8;" x="39.660158" xlink:href="#mec058ba039" y="93.155545"/>
      </g>
     </g>
     <g id="text_6">
      <!-- $0$ -->
      <g transform="translate(27.678823 96.614795)scale(0.1 -0.1)">
       <use transform="scale(0.996264)" xlink:href="#CMR17-48"/>
      </g>
     </g>
    </g>
    <g id="ytick_6">
     <g id="line2d_17">
      <g>
       <use style="stroke:#000000;stroke-width:0.8;" x="39.660158" xlink:href="#mec058ba039" y="71.108317"/>
      </g>
     </g>
     <g id="text_7">
      <!-- $1$ -->
      <g transform="translate(27.678823 74.567566)scale(0.1 -0.1)">
       <use transform="scale(0.996264)" xlink:href="#CMR17-49"/>
      </g>
     </g>
    </g>
   </g>
   <g id="line2d_18">
    <path clip-path="url(#pab574c7f23)" d="M 51.867632 72.013923 
L 54.333788 71.491046 
L 56.799944 71.189024 
L 59.266101 71.110938 
L 61.732257 71.257582 
L 64.198413 71.627462 
L 66.66457 72.216808 
L 69.130726 73.01961 
L 71.596882 74.027686 
L 74.063039 75.230758 
L 76.529195 76.616562 
L 78.995351 78.170971 
L 81.461508 79.878138 
L 83.927664 81.72066 
L 86.39382 83.679753 
L 88.859977 85.735445 
L 91.326133 87.866781 
L 93.792289 90.052033 
L 96.258446 92.268923 
L 98.724602 94.494852 
L 101.190758 96.707127 
L 103.656915 98.883196 
L 106.123071 101.000875 
L 108.589227 103.038576 
L 111.055383 104.975526 
L 113.52154 106.791978 
L 115.987696 108.469416 
L 118.453852 109.990739 
L 120.920009 111.340437 
L 123.386165 112.504752 
L 125.852321 113.471814 
L 128.318478 114.231764 
L 130.784634 114.776856 
L 133.25079 115.101532 
L 135.716947 115.202483 
L 138.183103 115.078679 
L 140.649259 114.731382 
L 143.115416 114.164134 
L 145.581572 113.382716 
L 148.047728 112.395095 
L 150.513885 111.211339 
L 152.980041 109.843515 
L 155.446197 108.305568 
L 157.912354 106.613177 
L 160.37851 104.783593 
L 162.844666 102.835468 
L 165.310823 100.788663 
L 167.776979 98.664044 
L 170.243135 96.483268 
L 172.709292 94.268568 
L 175.175448 92.042522 
L 177.641604 89.827823 
L 180.107761 87.647047 
L 182.573917 85.522427 
L 185.040073 83.475622 
L 187.506229 81.527498 
L 189.972386 79.697914 
L 192.438542 78.005522 
L 194.904698 76.467576 
L 197.370855 75.099752 
L 199.837011 73.915996 
L 202.303167 72.928375 
L 204.769324 72.146957 
L 207.23548 71.579709 
L 209.701636 71.232412 
L 212.167793 71.108608 
L 214.633949 71.209559 
L 217.100105 71.534235 
L 219.566262 72.079326 
L 222.032418 72.839277 
L 224.498574 73.806339 
L 226.964731 74.970654 
L 229.430887 76.320352 
L 231.897043 77.841674 
L 234.3632 79.519112 
L 236.829356 81.335565 
L 239.295512 83.272515 
L 241.761669 85.310216 
L 244.227825 87.427895 
L 246.693981 89.603964 
L 249.160138 91.816239 
L 251.626294 94.042168 
L 254.09245 96.259058 
L 256.558607 98.444309 
L 259.024763 100.575645 
L 261.490919 102.631338 
L 263.957075 104.590431 
L 266.423232 106.432953 
L 268.889388 108.14012 
L 271.355544 109.694528 
L 273.821701 111.080332 
L 276.287857 112.283404 
L 278.754013 113.29148 
L 281.22017 114.094283 
L 283.686326 114.683628 
L 286.152482 115.053509 
L 288.618639 115.200153 
L 291.084795 115.122066 
L 293.550951 114.820045 
L 296.017108 114.297168 
" style="fill:none;stroke:#1f77b4;stroke-linecap:square;stroke-width:1.5;"/>
   </g>
   <g id="patch_8">
    <path d="M 39.660158 117.407176 
L 39.660158 68.903914 
" style="fill:none;stroke:#000000;stroke-linecap:square;stroke-linejoin:miter;stroke-width:0.8;"/>
   </g>
   <g id="patch_9">
    <path d="M 308.224581 117.407176 
L 308.224581 68.903914 
" style="fill:none;stroke:#000000;stroke-linecap:square;stroke-linejoin:miter;stroke-width:0.8;"/>
   </g>
   <g id="patch_10">
    <path d="M 39.660158 117.407176 
L 308.224581 117.407176 
" style="fill:none;stroke:#000000;stroke-linecap:square;stroke-linejoin:miter;stroke-width:0.8;"/>
   </g>
   <g id="patch_11">
    <path d="M 39.660158 68.903914 
L 308.224581 68.903914 
" style="fill:none;stroke:#000000;stroke-linecap:square;stroke-linejoin:miter;stroke-width:0.8;"/>
   </g>
   <g id="text_8">
    <!-- (b) -->
    <defs>
     <path d="M 15 69 
L 3.09375 67.890625 
L 3.09375 65.296875 
C 9 65.296875 9.90625 64.703125 9.90625 60.046875 
L 9.90625 -0.203125 
L 11.703125 -0.203125 
L 14.59375 6.953125 
C 17.5 2.203125 21.796875 -1 27.59375 -1 
C 37.59375 -1 47.703125 7.859375 47.703125 21.59375 
C 47.703125 34.515625 38.703125 44 28.59375 44 
C 22.40625 44 18 40.671875 15 36.734375 
z
M 15.203125 31.59375 
C 15.203125 33.40625 15.203125 33.703125 16.59375 35.828125 
C 20.5 41.890625 26.09375 42.390625 28 42.390625 
C 31 42.390625 41.296875 40.78125 41.296875 21.6875 
C 41.296875 1.703125 29.5 0.59375 27.09375 0.59375 
C 24 0.59375 19.5 1.796875 16.296875 7.65625 
C 15.203125 9.578125 15.203125 9.78125 15.203125 11.59375 
z
" id="CMR17-98"/>
    </defs>
    <g transform="translate(44.660158 81.375894)scale(0.1 -0.1)">
     <use transform="scale(0.996264)" xlink:href="#CMR17-40"/>
     <use transform="translate(35.280768 0)scale(0.996264)" xlink:href="#CMR17-98"/>
     <use transform="translate(86.176138 0)scale(0.996264)" xlink:href="#CMR17-41"/>
    </g>
   </g>
  </g>
  <g id="axes_3">
   <g id="patch_12">
    <path d="M 39.660158 175.611091 
L 308.224581 175.611091 
L 308.224581 127.107829 
L 39.660158 127.107829 
z
" style="fill:#ffffff;"/>
   </g>
   <g id="matplotlib.axis_5">
    <g id="xtick_11">
     <g id="line2d_19">
      <g>
       <use style="stroke:#000000;stroke-width:0.8;" x="76.282579" xlink:href="#m2865fceacc" y="175.611091"/>
      </g>
     </g>
     <g id="text_9">
      <!-- $-4$ -->
      <defs>
       <path d="M 33.59375 64.796875 
C 33.59375 66.890625 33.5 67 31.703125 67 
L 2 19.59375 
L 2 17 
L 27.796875 17 
L 27.796875 7.1875 
C 27.796875 3.59375 27.59375 2.59375 20.59375 2.59375 
L 18.703125 2.59375 
L 18.703125 0 
C 21.90625 0.1875 27.296875 0.1875 30.703125 0.1875 
C 34.09375 0.1875 39.5 0.1875 42.703125 0 
L 42.703125 2.59375 
L 40.796875 2.59375 
C 33.796875 2.59375 33.59375 3.59375 33.59375 7.1875 
L 33.59375 17 
L 43.796875 17 
L 43.796875 19.59375 
L 33.59375 19.59375 
z
M 28.09375 58.171875 
L 28.09375 19.59375 
L 4 19.59375 
z
" id="CMR17-52"/>
      </defs>
      <g transform="translate(69.91754 189.529589)scale(0.1 -0.1)">
       <use transform="scale(0.996264)" xlink:href="#CMSY10-0"/>
       <use transform="translate(77.487468 0)scale(0.996264)" xlink:href="#CMR17-52"/>
      </g>
     </g>
    </g>
    <g id="xtick_12">
     <g id="line2d_20">
      <g>
       <use style="stroke:#000000;stroke-width:0.8;" x="125.112475" xlink:href="#m2865fceacc" y="175.611091"/>
      </g>
     </g>
     <g id="text_10">
      <!-- $-2$ -->
      <defs>
       <path d="M 41.703125 15.46875 
L 39.90625 15.46875 
C 38.90625 8.390625 38.09375 7.1875 37.703125 6.59375 
C 37.203125 5.796875 30 5.796875 28.59375 5.796875 
L 9.40625 5.796875 
C 13 9.6875 20 16.765625 28.5 24.9375 
C 34.59375 30.71875 41.703125 37.5 41.703125 47.390625 
C 41.703125 59.1875 32.296875 66 21.796875 66 
C 10.796875 66 4.09375 56.296875 4.09375 47.296875 
C 4.09375 43.390625 7 42.890625 8.203125 42.890625 
C 9.203125 42.890625 12.203125 43.484375 12.203125 46.984375 
C 12.203125 50.09375 9.59375 51 8.203125 51 
C 7.59375 51 7 50.890625 6.59375 50.6875 
C 8.5 59.1875 14.296875 63.390625 20.40625 63.390625 
C 29.09375 63.390625 34.796875 56.5 34.796875 47.390625 
C 34.796875 38.703125 29.703125 31.21875 24 24.734375 
L 4.09375 2.296875 
L 4.09375 0 
L 39.296875 0 
z
" id="CMR17-50"/>
      </defs>
      <g transform="translate(118.747435 189.529589)scale(0.1 -0.1)">
       <use transform="scale(0.996264)" xlink:href="#CMSY10-0"/>
       <use transform="translate(77.487468 0)scale(0.996264)" xlink:href="#CMR17-50"/>
      </g>
     </g>
    </g>
    <g id="xtick_13">
     <g id="line2d_21">
      <g>
       <use style="stroke:#000000;stroke-width:0.8;" x="173.94237" xlink:href="#m2865fceacc" y="175.611091"/>
      </g>
     </g>
     <g id="text_11">
      <!-- $0$ -->
      <g transform="translate(171.451702 189.529589)scale(0.1 -0.1)">
       <use transform="scale(0.996264)" xlink:href="#CMR17-48"/>
      </g>
     </g>
    </g>
    <g id="xtick_14">
     <g id="line2d_22">
      <g>
       <use style="stroke:#000000;stroke-width:0.8;" x="222.772265" xlink:href="#m2865fceacc" y="175.611091"/>
      </g>
     </g>
     <g id="text_12">
      <!-- $2$ -->
      <g transform="translate(220.281597 189.529589)scale(0.1 -0.1)">
       <use transform="scale(0.996264)" xlink:href="#CMR17-50"/>
      </g>
     </g>
    </g>
    <g id="xtick_15">
     <g id="line2d_23">
      <g>
       <use style="stroke:#000000;stroke-width:0.8;" x="271.60216" xlink:href="#m2865fceacc" y="175.611091"/>
      </g>
     </g>
     <g id="text_13">
      <!-- $4$ -->
      <g transform="translate(269.111492 189.529589)scale(0.1 -0.1)">
       <use transform="scale(0.996264)" xlink:href="#CMR17-52"/>
      </g>
     </g>
    </g>
   </g>
   <g id="matplotlib.axis_6">
    <g id="ytick_7">
     <g id="line2d_24">
      <g>
       <use style="stroke:#000000;stroke-width:0.8;" x="39.660158" xlink:href="#mec058ba039" y="173.419974"/>
      </g>
     </g>
     <g id="text_14">
      <!-- $-1$ -->
      <g transform="translate(19.930079 176.879223)scale(0.1 -0.1)">
       <use transform="scale(0.996264)" xlink:href="#CMSY10-0"/>
       <use transform="translate(77.487468 0)scale(0.996264)" xlink:href="#CMR17-49"/>
      </g>
     </g>
    </g>
    <g id="ytick_8">
     <g id="line2d_25">
      <g>
       <use style="stroke:#000000;stroke-width:0.8;" x="39.660158" xlink:href="#mec058ba039" y="151.35946"/>
      </g>
     </g>
     <g id="text_15">
      <!-- $0$ -->
      <g transform="translate(27.678823 154.818709)scale(0.1 -0.1)">
       <use transform="scale(0.996264)" xlink:href="#CMR17-48"/>
      </g>
     </g>
    </g>
    <g id="ytick_9">
     <g id="line2d_26">
      <g>
       <use style="stroke:#000000;stroke-width:0.8;" x="39.660158" xlink:href="#mec058ba039" y="129.298945"/>
      </g>
     </g>
     <g id="text_16">
      <!-- $1$ -->
      <g transform="translate(27.678823 132.758195)scale(0.1 -0.1)">
       <use transform="scale(0.996264)" xlink:href="#CMR17-49"/>
      </g>
     </g>
    </g>
   </g>
   <g id="line2d_27">
    <path clip-path="url(#pb1509e2a19)" d="M 51.867632 139.358074 
L 54.333788 143.316224 
L 56.799944 147.601521 
L 59.266101 152.039666 
L 61.732257 156.450146 
L 64.198413 160.653568 
L 66.66457 164.478967 
L 69.130726 167.770748 
L 71.596882 170.395025 
L 74.063039 172.245057 
L 76.529195 173.245598 
L 78.995351 173.355952 
L 81.461508 172.571631 
L 83.927664 170.924535 
L 86.39382 168.481658 
L 88.859977 165.342361 
L 91.326133 161.63433 
L 93.792289 157.508383 
L 96.258446 153.132337 
L 98.724602 148.684183 
L 101.190758 144.344841 
L 103.656915 140.290809 
L 106.123071 136.686978 
L 108.589227 133.679929 
L 111.055383 131.391969 
L 113.52154 129.916158 
L 115.987696 129.312522 
L 118.453852 129.605614 
L 120.920009 130.783511 
L 123.386165 132.798305 
L 125.852321 135.568047 
L 128.318478 138.980082 
L 130.784634 142.89563 
L 133.25079 147.155432 
L 135.716947 151.586227 
L 138.183103 156.007799 
L 140.649259 160.240306 
L 143.115416 164.111597 
L 145.581572 167.464214 
L 148.047728 170.161793 
L 150.513885 172.094615 
L 152.980041 173.184064 
L 155.446197 173.385829 
L 157.912354 172.691704 
L 160.37851 171.12992 
L 162.844666 168.764002 
L 165.310823 165.69018 
L 167.776979 162.033476 
L 170.243135 157.942622 
L 172.709292 153.584007 
L 175.175448 149.134912 
L 177.641604 144.776298 
L 180.107761 140.685444 
L 182.573917 137.02874 
L 185.040073 133.954917 
L 187.506229 131.588999 
L 189.972386 130.027215 
L 192.438542 129.33309 
L 194.904698 129.534855 
L 197.370855 130.624305 
L 199.837011 132.557126 
L 202.303167 135.254706 
L 204.769324 138.607322 
L 207.23548 142.478614 
L 209.701636 146.711121 
L 212.167793 151.132692 
L 214.633949 155.563487 
L 217.100105 159.823289 
L 219.566262 163.738837 
L 222.032418 167.150872 
L 224.498574 169.920614 
L 226.964731 171.935408 
L 229.430887 173.113306 
L 231.897043 173.406397 
L 234.3632 172.802761 
L 236.829356 171.32695 
L 239.295512 169.03899 
L 241.761669 166.031941 
L 244.227825 162.42811 
L 246.693981 158.374078 
L 249.160138 154.034736 
L 251.626294 149.586582 
L 254.09245 145.210537 
L 256.558607 141.08459 
L 259.024763 137.376558 
L 261.490919 134.237261 
L 263.957075 131.794384 
L 266.423232 130.147289 
L 268.889388 129.362967 
L 271.355544 129.473321 
L 273.821701 130.473862 
L 276.287857 132.323895 
L 278.754013 134.948171 
L 281.22017 138.239952 
L 283.686326 142.065351 
L 286.152482 146.268774 
L 288.618639 150.679253 
L 291.084795 155.117398 
L 293.550951 159.402695 
L 296.017108 163.360845 
" style="fill:none;stroke:#1f77b4;stroke-linecap:square;stroke-width:1.5;"/>
   </g>
   <g id="patch_13">
    <path d="M 39.660158 175.611091 
L 39.660158 127.107829 
" style="fill:none;stroke:#000000;stroke-linecap:square;stroke-linejoin:miter;stroke-width:0.8;"/>
   </g>
   <g id="patch_14">
    <path d="M 308.224581 175.611091 
L 308.224581 127.107829 
" style="fill:none;stroke:#000000;stroke-linecap:square;stroke-linejoin:miter;stroke-width:0.8;"/>
   </g>
   <g id="patch_15">
    <path d="M 39.660158 175.611091 
L 308.224581 175.611091 
" style="fill:none;stroke:#000000;stroke-linecap:square;stroke-linejoin:miter;stroke-width:0.8;"/>
   </g>
   <g id="patch_16">
    <path d="M 39.660158 127.107829 
L 308.224581 127.107829 
" style="fill:none;stroke:#000000;stroke-linecap:square;stroke-linejoin:miter;stroke-width:0.8;"/>
   </g>
   <g id="text_17">
    <!-- (c) -->
    <defs>
     <path d="M 34.90625 35 
C 33 35 30.203125 35 30.203125 31.484375 
C 30.203125 28.6875 32.5 27.890625 33.796875 27.890625 
C 34.5 27.890625 37.40625 28.1875 37.40625 31.6875 
C 37.40625 38.6875 30.59375 44 22.90625 44 
C 12.296875 44 3.296875 34.390625 3.296875 21.546875 
C 3.296875 8.140625 12.703125 -1 22.90625 -1 
C 35.296875 -1 38.40625 10.5625 38.40625 11.671875 
C 38.40625 12.078125 38.296875 12.375 37.59375 12.375 
C 36.90625 12.375 36.796875 12.28125 36.40625 10.96875 
C 33.796875 2.8125 28.09375 0.796875 23.796875 0.796875 
C 17.40625 0.796875 9.703125 6.734375 9.703125 21.640625 
C 9.703125 36.84375 17.09375 42.1875 23 42.1875 
C 26.90625 42.1875 32.703125 40.34375 34.90625 35 
z
" id="CMR17-99"/>
    </defs>
    <g transform="translate(44.660158 139.579809)scale(0.1 -0.1)">
     <use transform="scale(0.996264)" xlink:href="#CMR17-40"/>
     <use transform="translate(35.280768 0)scale(0.996264)" xlink:href="#CMR17-99"/>
     <use transform="translate(75.766428 0)scale(0.996264)" xlink:href="#CMR17-41"/>
    </g>
   </g>
  </g>
 </g>
 <defs>
  <clipPath id="p67ce00545e">
   <rect height="48.503262" width="268.564423" x="39.660158" y="10.7"/>
  </clipPath>
  <clipPath id="pab574c7f23">
   <rect height="48.503262" width="268.564423" x="39.660158" y="68.903914"/>
  </clipPath>
  <clipPath id="pb1509e2a19">
   <rect height="48.503262" width="268.564423" x="39.660158" y="127.107829"/>
  </clipPath>
 </defs>
</svg>
