<?xml version="1.0" encoding="utf-8" standalone="no"?>
<!DOCTYPE svg PUBLIC "-//W3C//DTD SVG 1.1//EN"
  "http://www.w3.org/Graphics/SVG/1.1/DTD/svg11.dtd">
<!-- Created with matplotlib (https://matplotlib.org/) -->
<svg height="297.780173pt" version="1.1" viewBox="0 0 393.262187 297.780173" width="393.262187pt" xmlns="http://www.w3.org/2000/svg" xmlns:xlink="http://www.w3.org/1999/xlink">
 <defs>
  <style type="text/css">
*{stroke-linecap:butt;stroke-linejoin:round;}
  </style>
 </defs>
 <g id="figure_1">
  <g id="patch_1">
   <path d="M 0 297.780173 
L 393.262187 297.780173 
L 393.262187 0 
L 0 0 
z
" style="fill:#ffffff;"/>
  </g>
  <g id="axes_1">
   <g id="line2d_1">
    <path clip-path="url(#p0ba55d9d49)" d="M 45.174915 140.861037 
L 48.454254 131.039741 
L 51.733592 121.318568 
L 55.012931 111.796618 
L 58.29227 102.57096 
L 61.571609 93.735647 
L 64.850948 85.380746 
L 68.130287 77.591433 
L 71.409626 70.447112 
L 74.688964 64.020618 
L 77.968303 58.377463 
L 81.247642 53.575175 
L 84.526981 49.662712 
L 87.80632 46.679959 
L 91.085659 44.657322 
L 94.364997 43.615421 
L 97.644336 43.564877 
L 100.923675 44.506207 
L 104.203014 46.429813 
L 107.482353 49.316086 
L 110.761692 53.135602 
L 114.04103 57.849423 
L 117.320369 63.409495 
L 120.599708 69.759137 
L 123.879047 76.833617 
L 127.158386 84.560817 
L 130.437725 92.861962 
L 133.717064 101.652427 
L 136.996402 110.842599 
L 140.275741 120.338791 
L 143.55508 130.044193 
L 146.834419 139.859866 
L 150.113758 149.685746 
L 153.393097 159.421664 
L 156.672435 168.968367 
L 159.951774 178.228534 
L 163.231113 187.107763 
L 166.510452 195.515536 
L 169.789791 203.366141 
L 173.06913 210.579545 
L 176.348468 217.082214 
L 179.627807 222.807856 
L 182.907146 227.698101 
L 186.186485 231.703098 
L 189.465824 234.782018 
L 192.745163 236.903472 
L 196.024502 238.045834 
L 199.30384 238.197459 
L 202.583179 237.3568 
L 205.862518 235.532428 
L 209.141857 232.742941 
L 212.421196 229.016776 
L 215.700535 224.391919 
L 218.979873 218.915517 
L 222.259212 212.6434 
L 225.538551 205.639506 
L 228.81789 197.975237 
L 232.097229 189.728724 
L 235.376568 180.984037 
L 238.655907 171.830321 
L 241.935245 162.360892 
L 245.214584 152.672286 
L 248.493923 142.863272 
L 251.773262 133.033846 
L 255.052601 123.284214 
L 258.33194 113.713766 
L 261.611278 104.420068 
L 264.890617 95.497862 
L 268.169956 87.038105 
L 271.449295 79.127039 
L 274.728634 71.845312 
L 278.007973 65.267156 
L 281.287311 59.459633 
L 284.56665 54.481945 
L 287.845989 50.384838 
L 291.125328 47.210078 
L 294.404667 44.990031 
L 297.684006 43.747328 
L 300.963345 43.494638 
L 304.242683 44.234537 
L 307.522022 45.959482 
L 310.801361 48.651889 
L 314.0807 52.284309 
L 317.360039 56.819713 
L 320.639378 62.211866 
L 323.918716 68.405797 
L 327.198055 75.338363 
L 330.477394 82.938892 
L 333.756733 91.129901 
L 337.036072 99.827887 
L 340.315411 108.94418 
L 343.594749 118.385845 
L 346.874088 128.05663 
L 350.153427 137.857949 
L 353.432766 147.689882 
L 356.712105 157.452199 
L 359.991444 167.04538 
L 363.270783 176.371628 
L 366.550121 185.335868 
L 369.82946 193.846715 
" style="fill:none;stroke:#1f77b4;stroke-linecap:square;stroke-width:1.5;"/>
   </g>
   <g id="line2d_2">
    <path clip-path="url(#p0ba55d9d49)" d="M 45.174915 140.861037 
" style="fill:none;stroke:#000000;stroke-linecap:square;stroke-width:1.5;"/>
    <defs>
     <path d="M 0 1.25 
C 0.331504 1.25 0.649475 1.118292 0.883883 0.883883 
C 1.118292 0.649475 1.25 0.331504 1.25 0 
C 1.25 -0.331504 1.118292 -0.649475 0.883883 -0.883883 
C 0.649475 -1.118292 0.331504 -1.25 0 -1.25 
C -0.331504 -1.25 -0.649475 -1.118292 -0.883883 -0.883883 
C -1.118292 -0.649475 -1.25 -0.331504 -1.25 0 
C -1.25 0.331504 -1.118292 0.649475 -0.883883 0.883883 
C -0.649475 1.118292 -0.331504 1.25 0 1.25 
z
" id="m5d1984ad85" style="stroke:#000000;"/>
    </defs>
    <g clip-path="url(#p0ba55d9d49)">
     <use style="stroke:#000000;" x="45.174915" xlink:href="#m5d1984ad85" y="140.861037"/>
    </g>
   </g>
   <g id="line2d_3">
    <path clip-path="url(#p0ba55d9d49)" d="M 45.174915 140.861037 
" style="fill:none;stroke:#000000;stroke-linecap:square;stroke-width:1.5;"/>
    <defs>
     <path d="M 0 3.5 
C 0.928211 3.5 1.81853 3.131218 2.474874 2.474874 
C 3.131218 1.81853 3.5 0.928211 3.5 0 
C 3.5 -0.928211 3.131218 -1.81853 2.474874 -2.474874 
C 1.81853 -3.131218 0.928211 -3.5 0 -3.5 
C -0.928211 -3.5 -1.81853 -3.131218 -2.474874 -2.474874 
C -3.131218 -1.81853 -3.5 -0.928211 -3.5 0 
C -3.5 0.928211 -3.131218 1.81853 -2.474874 2.474874 
C -1.81853 3.131218 -0.928211 3.5 0 3.5 
z
" id="m45896f6117" style="stroke:#000000;"/>
    </defs>
    <g clip-path="url(#p0ba55d9d49)">
     <use style="fill-opacity:0;stroke:#000000;" x="45.174915" xlink:href="#m45896f6117" y="140.861037"/>
    </g>
   </g>
   <g id="patch_2">
    <path d="M 45.174915 138.859687 
Q 45.174915 124.626123 45.174915 111.510592 
" style="fill:none;stroke:#000000;stroke-linecap:round;"/>
    <path d="M 43.174915 115.510592 
L 45.174915 111.510592 
L 47.174915 115.510592 
" style="fill:none;stroke:#000000;stroke-linecap:round;"/>
   </g>
   <g id="patch_3">
    <path d="M 47.176264 140.861037 
Q 61.409829 140.861037 74.52536 140.861037 
" style="fill:none;stroke:#000000;stroke-linecap:round;"/>
    <path d="M 70.52536 138.861037 
L 74.52536 140.861037 
L 70.52536 142.861037 
" style="fill:none;stroke:#000000;stroke-linecap:round;"/>
   </g>
   <g id="text_1">
    <!-- x -->
    <defs>
     <path d="M 54.890625 54.6875 
L 35.109375 28.078125 
L 55.90625 0 
L 45.3125 0 
L 29.390625 21.484375 
L 13.484375 0 
L 2.875 0 
L 24.125 28.609375 
L 4.6875 54.6875 
L 15.28125 54.6875 
L 29.78125 35.203125 
L 44.28125 54.6875 
z
" id="DejaVuSans-120"/>
    </defs>
    <g transform="translate(77.92754 143.620412)scale(0.1 -0.1)">
     <use xlink:href="#DejaVuSans-120"/>
    </g>
   </g>
   <g id="text_2">
    <!-- y -->
    <defs>
     <path d="M 32.171875 -5.078125 
Q 28.375 -14.84375 24.75 -17.8125 
Q 21.140625 -20.796875 15.09375 -20.796875 
L 7.90625 -20.796875 
L 7.90625 -13.28125 
L 13.1875 -13.28125 
Q 16.890625 -13.28125 18.9375 -11.515625 
Q 21 -9.765625 23.484375 -3.21875 
L 25.09375 0.875 
L 2.984375 54.6875 
L 12.5 54.6875 
L 29.59375 11.921875 
L 46.6875 54.6875 
L 56.203125 54.6875 
z
" id="DejaVuSans-121"/>
    </defs>
    <g transform="translate(42.21554 107.908412)scale(0.1 -0.1)">
     <use xlink:href="#DejaVuSans-121"/>
    </g>
   </g>
   <g id="text_3">
    <!-- z -->
    <defs>
     <path d="M 5.515625 54.6875 
L 48.1875 54.6875 
L 48.1875 46.484375 
L 14.40625 7.171875 
L 48.1875 7.171875 
L 48.1875 0 
L 4.296875 0 
L 4.296875 8.203125 
L 38.09375 47.515625 
L 5.515625 47.515625 
z
" id="DejaVuSans-122"/>
    </defs>
    <g transform="translate(32.81106 143.620412)scale(0.1 -0.1)">
     <use xlink:href="#DejaVuSans-122"/>
    </g>
   </g>
  </g>
 </g>
 <defs>
  <clipPath id="p0ba55d9d49">
   <rect height="266.112" width="357.12" x="28.942188" y="7.790048"/>
  </clipPath>
 </defs>
</svg>
